<svg xmlns="http://www.w3.org/2000/svg" version="1.1" xmlns:xlink="http://www.w3.org/1999/xlink" xmlns:svgjs="http://svgjs.com/svgjs" width="512" height="512" x="0" y="0" viewBox="0 0 64 64" style="enable-background:new 0 0 512 512" xml:space="preserve" class=""><g><path d="M32.659 33.247a1 1 0 0 0-1.318 0l-8 7A1.003 1.003 0 0 0 23 41v21a1 1 0 0 0 1 1h16a1 1 0 0 0 1-1V41a1.003 1.003 0 0 0-.341-.753ZM39 61H25V41.454l7-6.125 7 6.125Z" fill="#009300" data-original="#000000" class=""></path><path d="M28.5 43.5A3.5 3.5 0 1 0 32 40a3.504 3.504 0 0 0-3.5 3.5Zm5 0A1.5 1.5 0 1 1 32 42a1.502 1.502 0 0 1 1.5 1.5ZM50.674 40.262a.998.998 0 0 0-1.348 0l-6 5.476a.999.999 0 0 0-.326.739V62a1 1 0 0 0 1 1h12a1 1 0 0 0 1-1V46.477a.999.999 0 0 0-.326-.739ZM55 61H45V46.918l5-4.564 5 4.564Z" fill="#009300" data-original="#000000" class=""></path><path d="M47 48a3 3 0 1 0 3-3 3.003 3.003 0 0 0-3 3Zm4 0a1 1 0 1 1-1-1 1.001 1.001 0 0 1 1 1ZM14.674 40.262a.998.998 0 0 0-1.348 0l-6 5.476a.999.999 0 0 0-.326.739V62a1 1 0 0 0 1 1h12a1 1 0 0 0 1-1V46.477a.999.999 0 0 0-.326-.739ZM19 61H9V46.918l5-4.564 5 4.564Z" fill="#009300" data-original="#000000" class=""></path><path d="M11 48a3 3 0 1 0 3-3 3.003 3.003 0 0 0-3 3Zm4 0a1 1 0 1 1-1-1 1.001 1.001 0 0 1 1 1ZM44.009 28.94c.507-2.013.917-2.424 2.93-2.931a1.2 1.2 0 0 0 0-2.326c-2.013-.507-2.423-.918-2.93-2.93a1.199 1.199 0 0 0-1.162-.908h-.001a1.2 1.2 0 0 0-1.164.907c-.506 2.013-.917 2.424-2.93 2.93a1.2 1.2 0 0 0 0 2.327c2.013.507 2.424.918 2.93 2.932a1.199 1.199 0 0 0 1.164.905h.001a1.199 1.199 0 0 0 1.162-.907Zm-1.163-2.596a3.833 3.833 0 0 0-1.498-1.498 3.833 3.833 0 0 0 1.498-1.498 3.83 3.83 0 0 0 1.498 1.498 3.83 3.83 0 0 0-1.498 1.498ZM26.006 7.3a1.198 1.198 0 0 0-.906-1.16c-2.013-.507-2.424-.918-2.93-2.932a1.2 1.2 0 0 0-2.327.001c-.507 2.013-.917 2.424-2.926 2.93a1.2 1.2 0 0 0-.004 2.327c2.013.507 2.423.918 2.93 2.93a1.2 1.2 0 0 0 2.326 0c.507-2.012.918-2.423 2.931-2.93a1.198 1.198 0 0 0 .906-1.166Zm-5 1.5a3.826 3.826 0 0 0-1.498-1.497 3.833 3.833 0 0 0 1.498-1.498 3.833 3.833 0 0 0 1.498 1.498A3.826 3.826 0 0 0 21.006 8.8Z" fill="#009300" data-original="#000000" class=""></path><path d="M32 25a9 9 0 1 0-9-9 9.01 9.01 0 0 0 9 9Zm0-16a7 7 0 1 1-7 7 7.008 7.008 0 0 1 7-7Z" fill="#009300" data-original="#000000" class=""></path><path d="m28.932 16.942-.391 2.397a1 1 0 0 0 1.47 1.036L32 19.276l1.988 1.099a1 1 0 0 0 1.471-1.036l-.39-2.397 1.647-1.688a1 1 0 0 0-.565-1.687l-2.236-.341-1.01-2.15a1 1 0 0 0-1.81 0l-1.01 2.15-2.236.341a1 1 0 0 0-.565 1.687Zm1.983-1.82a1 1 0 0 0 .754-.563l.331-.705.33.705a1 1 0 0 0 .755.563l.84.129-.64.656a1 1 0 0 0-.272.86l.14.862-.67-.37a1 1 0 0 0-.967 0l-.67.37.14-.862a1 1 0 0 0-.27-.86l-.64-.656Z" fill="#009300" data-original="#000000" class=""></path><path d="m39.553 28.962-1.009-1.727a13.008 13.008 0 0 1-19.249-14.004l-1.955-.423A15.014 15.014 0 0 0 32 31a14.992 14.992 0 0 0 7.553-2.038ZM46.405 20.195A15.005 15.005 0 0 0 24.757 2.862l.967 1.75a13.008 13.008 0 0 1 18.76 15.025Z" fill="#009300" data-original="#000000" class=""></path></g></svg>