<svg xmlns="http://www.w3.org/2000/svg" version="1.1" xmlns:xlink="http://www.w3.org/1999/xlink" xmlns:svgjs="http://svgjs.com/svgjs" width="512" height="512" x="0" y="0" viewBox="0 0 72 72" style="enable-background:new 0 0 512 512" xml:space="preserve" class=""><g><g data-name="Energy Protection"><path d="M31 48a.999.999 0 0 1-.97-1.242L32.719 36H29a1 1 0 0 1-.919-1.394l6-14A.999.999 0 0 1 35 20h6a1 1 0 0 1 .935 1.355L39.026 29H43a1 1 0 0 1 .817 1.577l-12 17A1 1 0 0 1 31 48Zm-.483-14H34a1 1 0 0 1 .97 1.243l-1.702 6.81L41.07 31h-3.494a1 1 0 0 1-.934-1.355L39.55 22h-3.89Z" fill="#009300" data-original="#000000" class=""></path><path d="M36 70a1.015 1.015 0 0 1-.36-.066A41.81 41.81 0 0 1 9 31.144V9a1 1 0 0 1 .445-.832C9.823 7.916 18.894 2 36 2s26.177 5.916 26.555 6.168A1 1 0 0 1 63 9v22.143a41.81 41.81 0 0 1-26.64 38.79A1.015 1.015 0 0 1 36 70ZM11 9.564v21.58a39.803 39.803 0 0 0 25 36.783 39.803 39.803 0 0 0 25-36.784V9.564C59.007 8.418 50.389 4 36 4S12.993 8.418 11 9.564Z" fill="#009300" data-original="#000000" class=""></path><path d="M36 63.485a1.003 1.003 0 0 1-.423-.093A35.716 35.716 0 0 1 15 31.143V12.67a1 1 0 0 1 .607-.92A52.45 52.45 0 0 1 36 8a52.402 52.402 0 0 1 20.393 3.753 1 1 0 0 1 .607.92v18.47a35.716 35.716 0 0 1-20.577 32.249 1.003 1.003 0 0 1-.423.093ZM17 13.337v17.806A33.71 33.71 0 0 0 36 61.38a33.71 33.71 0 0 0 19-30.236V13.34A51.158 51.158 0 0 0 36 10a51.19 51.19 0 0 0-19 3.337Z" fill="#009300" data-original="#000000" class=""></path></g></g></svg>