<svg xmlns="http://www.w3.org/2000/svg" version="1.1" xmlns:xlink="http://www.w3.org/1999/xlink" xmlns:svgjs="http://svgjs.com/svgjs" width="512" height="512" x="0" y="0" viewBox="0 0 512 512" style="enable-background:new 0 0 512 512" xml:space="preserve" class=""><g><path d="M235.274 377.767a7.515 7.515 0 0 0-7.515 7.515v89.145c0 12.431-10.113 22.544-22.544 22.544h-97.776c-12.431 0-22.544-10.113-22.544-22.544V240.895a7.515 7.515 0 1 0-15.03 0v233.532c0 20.718 16.855 37.573 37.573 37.573h97.776c20.718 0 37.573-16.855 37.573-37.573v-89.145a7.512 7.512 0 0 0-7.513-7.515zM205.215 35.67H194.79V18.01c0-9.931-8.08-18.01-18.01-18.01h-40.905c-9.931 0-18.01 8.079-18.01 18.009v17.66h-10.426c-20.718 0-37.573 16.855-37.573 37.573v137.593a7.515 7.515 0 1 0 15.03 0V106.08H227.76v249.143a7.515 7.515 0 1 0 15.03 0V73.243c-.001-20.718-16.856-37.573-37.575-37.573zm-72.321-17.661a2.984 2.984 0 0 1 2.98-2.98h40.905a2.983 2.983 0 0 1 2.98 2.98v17.66h-46.866v-17.66zM84.895 91.05V73.243c0-12.431 10.113-22.544 22.544-22.544h97.776c12.43 0 22.544 10.113 22.544 22.544V91.05z" fill="#009300" data-original="#000000" class=""></path><path d="M156.327 138.354a7.515 7.515 0 0 0-7.515 7.515v13.669h-13.669a7.515 7.515 0 1 0 0 15.03h13.669v13.669a7.515 7.515 0 1 0 15.03 0v-13.669h13.67a7.515 7.515 0 1 0 0-15.03h-13.67v-13.669a7.515 7.515 0 0 0-7.515-7.515zM135.143 451.577h42.369a7.515 7.515 0 1 0 0-15.03h-42.369c-4.151 0-7.515 3.364-7.515 7.515s3.364 7.515 7.515 7.515zM404.561 35.67h-10.426V18.01c0-9.93-8.079-18.009-18.01-18.009H335.22c-9.931 0-18.01 8.079-18.01 18.009v17.66h-10.426c-20.718 0-37.573 16.855-37.573 37.573v401.183c0 20.718 16.855 37.573 37.573 37.573h97.776c20.718 0 37.573-16.855 37.573-37.573V264.942a7.515 7.515 0 1 0-15.03 0v209.485c0 12.431-10.113 22.544-22.544 22.544h-97.776c-12.431 0-22.544-10.113-22.544-22.544V106.08h142.864v128.803a7.515 7.515 0 1 0 15.03 0V73.243c.001-20.718-16.854-37.573-37.572-37.573zM332.24 18.009a2.984 2.984 0 0 1 2.981-2.98h40.905a2.983 2.983 0 0 1 2.98 2.98v17.66H332.24zM284.241 91.05V73.243c0-12.431 10.113-22.544 22.544-22.544h97.776c12.431 0 22.544 10.113 22.544 22.544V91.05z" fill="#009300" data-original="#000000" class=""></path><path d="M376.857 159.538h-13.669v-13.669a7.515 7.515 0 1 0-15.03 0v13.669h-13.67a7.515 7.515 0 1 0 0 15.03h13.67v13.669a7.515 7.515 0 1 0 15.03 0v-13.669h13.669c4.151 0 7.515-3.364 7.515-7.515s-3.364-7.515-7.515-7.515zM376.857 436.547h-42.369c-4.151 0-7.515 3.364-7.515 7.515s3.364 7.515 7.515 7.515h42.369a7.515 7.515 0 1 0 0-15.03z" fill="#009300" data-original="#000000" class=""></path></g></svg>