<svg xmlns="http://www.w3.org/2000/svg" version="1.1" xmlns:xlink="http://www.w3.org/1999/xlink" xmlns:svgjs="http://svgjs.com/svgjs" width="512" height="512" x="0" y="0" viewBox="0 0 512 512" style="enable-background:new 0 0 512 512" xml:space="preserve" class=""><g><path d="M241.468 32.257h29.064v54.826h-29.064zM144.792 32.257h29.064v54.826h-29.064zM183.606 32.257h-48.564a5.883 5.883 0 0 1-5.883-5.883V13.383a5.883 5.883 0 0 1 5.883-5.883h48.564a5.883 5.883 0 0 1 5.883 5.883v12.991a5.883 5.883 0 0 1-5.883 5.883zM338.144 32.257h29.064v54.826h-29.064zM376.958 32.257h-48.564a5.883 5.883 0 0 1-5.883-5.883V13.383a5.883 5.883 0 0 1 5.883-5.883h48.564a5.883 5.883 0 0 1 5.883 5.883v12.991a5.883 5.883 0 0 1-5.883 5.883zM278.546 170.667h-49.833a4.45 4.45 0 0 0-4.146 2.835l-22.772 58.495a4.449 4.449 0 0 0 2.985 5.909l42.441 11.47a4.448 4.448 0 0 1 3.176 5.287l-10.964 47.943c-1.026 4.485 4.599 7.387 7.659 3.951l62.291-69.925a4.449 4.449 0 0 0-.997-6.752l-34.362-21.062a4.448 4.448 0 0 1-1.815-5.421l10.478-26.651c1.147-2.92-1.005-6.079-4.141-6.079zM317.651 388.955H194.349a5.505 5.505 0 0 1-5.505-5.505v-25.101a5.505 5.505 0 0 1 5.505-5.505h123.303a5.505 5.505 0 0 1 5.505 5.505v25.101a5.507 5.507 0 0 1-5.506 5.505zM125.571 124.683h6.606M379.823 124.683h6.606M125.571 466.9h6.606M379.823 466.9h6.606" style="stroke-width:15;stroke-linecap:round;stroke-linejoin:round;stroke-miterlimit:10;" fill="none" stroke="#009300" stroke-width="15" stroke-linecap="round" stroke-linejoin="round" stroke-miterlimit="10" data-original="#000000" class=""></path><path d="M356.624 185.952v-31.226l-20.336-20.336H175.712l-20.336 20.336v282.131l20.336 20.336h160.575l20.336-20.336V214.952" style="stroke-width:15;stroke-linecap:round;stroke-linejoin:round;stroke-miterlimit:10;" fill="none" stroke="#009300" stroke-width="15" stroke-linecap="round" stroke-linejoin="round" stroke-miterlimit="10" data-original="#000000" class=""></path><path d="M189.489 504.5H398.87l34.781-34.782v-45.077l-16.911-7.731v-31.102l16.911-7.731v-59.004l-16.911-7.731V280.24l16.911-7.731v-59.004l-16.911-7.731v-31.102l16.911-7.731v-45.077a1140582.22 1140582.22 0 0 1-34.781-34.782H113.13l-34.781 34.782v45.077l16.911 7.731v31.102l-16.911 7.731v59.004l16.911 7.731v31.102l-16.911 7.731v59.004l16.911 7.731v31.102l-16.911 7.731v45.077L113.13 504.5h47.36M241.5 7.5h-9.782a5.883 5.883 0 0 0-5.883 5.883v12.991a5.883 5.883 0 0 0 5.883 5.883h48.564a5.883 5.883 0 0 0 5.883-5.883V13.383a5.883 5.883 0 0 0-5.883-5.883H270.5" style="stroke-width:15;stroke-linecap:round;stroke-linejoin:round;stroke-miterlimit:10;" fill="none" stroke="#009300" stroke-width="15" stroke-linecap="round" stroke-linejoin="round" stroke-miterlimit="10" data-original="#000000" class=""></path></g></svg>