<svg xmlns="http://www.w3.org/2000/svg" version="1.1" xmlns:xlink="http://www.w3.org/1999/xlink" xmlns:svgjs="http://svgjs.com/svgjs" width="512" height="512" x="0" y="0" viewBox="0 0 64 64" style="enable-background:new 0 0 512 512" xml:space="preserve" class=""><g><path d="M49 45h2v2h-2zM41 45h2v2h-2zM45 45h2v2h-2zM46 7c-6.065 0-11 4.935-11 11s4.935 11 11 11 11-4.935 11-11S52.065 7 46 7zm0 20c-4.962 0-9-4.038-9-9s4.038-9 9-9 9 4.038 9 9-4.038 9-9 9z" fill="#009300" data-original="#000000" class=""></path><path d="M63 21.729V14.27l-2.734-.876a14.935 14.935 0 0 0-.919-2.229l1.312-2.549-5.274-5.274-2.549 1.312a14.935 14.935 0 0 0-2.229-.919L49.729 1H42.27l-.876 2.734c-.772.248-1.519.556-2.229.919l-2.549-1.312-5.274 5.274L32.568 11H6c-2.757 0-5 2.243-5 5v30c0 2.757 2.243 5 5 5h12.963a5.708 5.708 0 0 1-2.296 4H14c-1.654 0-3 1.346-3 3v2c0 1.654 1.346 3 3 3h30c1.654 0 3-1.346 3-3v-2c0-1.654-1.346-3-3-3h-2.666a5.708 5.708 0 0 1-2.296-4H52c2.757 0 5-2.243 5-5V31.042l3.658-3.658-1.312-2.548c.363-.709.67-1.456.919-2.229zM45 58v2c0 .552-.449 1-1 1H14c-.551 0-1-.448-1-1v-2c0-.552.449-1 1-1h30c.551 0 1 .448 1 1zm-6.471-3H19.471a7.697 7.697 0 0 0 1.492-4h16.075a7.705 7.705 0 0 0 1.491 4zM52 49H6c-1.654 0-3-1.346-3-3V16c0-1.654 1.346-3 3-3h25.879c-.047.132-.101.26-.144.394L29 14.271V15H7c-1.103 0-2 .897-2 2v24c0 1.103.897 2 2 2h44c1.103 0 2-.897 2-2v-9.568l2 1.029V46c0 1.654-1.346 3-3 3zM36.616 32.658l2.549-1.312c.71.363 1.457.671 2.229.919L42.271 35h7.459l.876-2.734c.134-.043.262-.098.394-.144V41H7V17h22v4.729l2.734.876c.249.773.556 1.52.919 2.229l-1.312 2.548zm22.028-11.633-.146.517a12.874 12.874 0 0 1-1.153 2.795l-.263.469 1.13 2.195-3.211 3.211-2.195-1.129-.468.262c-.869.486-1.81.875-2.796 1.153l-.517.146L48.271 33H43.73l-.755-2.356-.517-.146a12.965 12.965 0 0 1-2.796-1.153l-.468-.262-2.195 1.129-3.211-3.211 1.13-2.195-.263-.469a12.894 12.894 0 0 1-1.153-2.795l-.146-.517L31 20.271V15.73l2.356-.755.146-.517c.279-.986.667-1.927 1.153-2.796l.262-.468-1.129-2.195 3.211-3.211 2.195 1.129.468-.262c.869-.486 1.81-.875 2.796-1.153l.517-.146L43.729 3h4.541l.755 2.356.517.146c.986.279 1.927.667 2.796 1.153l.468.262 2.195-1.129 3.211 3.211-1.129 2.195.262.468c.486.869.875 1.81 1.153 2.796l.146.517 2.356.754v4.541z" fill="#009300" data-original="#000000" class=""></path><path d="M46 13c-2.757 0-5 2.243-5 5s2.243 5 5 5 5-2.243 5-5-2.243-5-5-5zm0 8c-1.654 0-3-1.346-3-3s1.346-3 3-3 3 1.346 3 3-1.346 3-3 3zM24 23H12c-1.654 0-3 1.346-3 3v10c0 1.654 1.346 3 3 3h12c1.654 0 3-1.346 3-3V26c0-1.654-1.346-3-3-3zm-7 2h2v2h-2zm8 11c0 .552-.449 1-1 1H12c-.551 0-1-.448-1-1V26c0-.551.449-1 1-1h3v4h6v-4h3c.551 0 1 .449 1 1zM9 19h2v2H9zM13 19h14v2H13zM43 37h2v2h-2zM39 37h2v2h-2zM47 37h2v2h-2z" fill="#009300" data-original="#000000" class=""></path></g></svg>