<svg xmlns="http://www.w3.org/2000/svg" version="1.1" xmlns:xlink="http://www.w3.org/1999/xlink" xmlns:svgjs="http://svgjs.com/svgjs" width="512" height="512" x="0" y="0" viewBox="0 0 512 512" style="enable-background:new 0 0 512 512" xml:space="preserve" class=""><g><path d="M336.911 323.674a8 8 0 0 0-8-8h-37.309V271.95a8 8 0 0 0-8-8h-37.309v-43.722a8 8 0 0 0-8-8h-90.617a8 8 0 0 0-8 8v43.722h-29.315l-.021-92.981c0-24.045-19.542-43.607-43.562-43.607H27.434C16.718 127.362 8 136.08 8 146.796c0 10.715 8.718 19.433 19.434 19.433h39.345c2.569 0 4.74 2.171 4.74 4.74v175.834c-13.092 7.074-22.007 20.925-22.007 36.821 0 23.061 18.762 41.822 41.823 41.822 14.722 0 27.682-7.653 35.137-19.183h196.194c10.716 0 19.434-8.718 19.434-19.434 0-5.085-1.979-9.706-5.188-13.173v-49.982zm-16 43.722h-74.617v-35.723h74.617zm-90.617-35.722v35.723h-74.618v-35.723zm45.308-16h-74.617V279.95h74.617zm-119.926-87.446h74.617v35.722h-74.617zm29.309 51.722v35.724h-74.613l-.008-35.724zM24 146.796a3.438 3.438 0 0 1 3.434-3.434h25.301v6.867H27.434A3.438 3.438 0 0 1 24 146.796zm44.735 3.532v-6.889c14.287 1.01 25.605 12.967 25.605 27.532l.038 170.952a42.009 42.009 0 0 0-3.044-.123c-1.287 0-2.559.067-3.816.182V170.969c0-10.775-8.262-19.651-18.783-20.641zm22.599 259.118c-14.239 0-25.823-11.584-25.823-25.822 0-14.239 11.584-25.823 25.823-25.823s25.823 11.584 25.823 25.823c0 14.238-11.584 25.822-25.823 25.822zm19.045-63.038-.003-14.734h29.3v35.723h-9.797c-3.834-9.073-10.786-16.511-19.5-20.989zm212.286 43.856H132.624c.347-2.164.533-4.38.533-6.64 0-.076-.005-.151-.006-.228h189.514c1.893 0 3.434 1.54 3.434 3.434s-1.541 3.434-3.434 3.434zm-231.331-29.17c-12.423 0-22.531 10.107-22.531 22.53s10.107 22.53 22.531 22.53 22.531-10.107 22.531-22.53-10.108-22.53-22.531-22.53zm0 29.06c-3.601 0-6.531-2.93-6.531-6.53s2.93-6.53 6.531-6.53 6.531 2.93 6.531 6.53-2.93 6.53-6.531 6.53zm392.665-206.035v-73.284c0-15.941-22.959-24.282-45.638-24.282s-45.638 8.341-45.638 24.282v29.402c-22.519.119-45.15 8.449-45.15 24.276v58.417l-9.621-2.578c-8.214-2.2-16.384 5.354-19.872 18.37-3.487 13.016-.188 23.644 8.024 25.844l21.469 5.753v80.844c0 15.941 22.959 24.282 45.639 24.282 6.893 0 13.532-.737 19.512-2.12v17.84c0 15.94 22.959 24.281 45.639 24.281 22.679 0 45.638-8.341 45.638-24.281V204.514c-.001-9.625-8.377-16.474-20.002-20.395zm3.927 20.391c-1.203 2.447-11.428 8.286-29.564 8.286s-28.362-5.839-29.564-8.286c1.226-2.453 11.454-8.278 29.564-8.278s28.338 5.825 29.564 8.278zm-29.565-24.278c-6.679 0-13.378.729-19.512 2.157v-17.877c0-12.249-13.559-20.004-30.126-22.943v-11.857c8.354 3.576 19.026 5.403 29.639 5.403 1.851 0 3.703-.061 5.546-.172v20.347a8 8 0 0 0 16 0v-22.837c2.862-.756 5.584-1.667 8.092-2.741v51.03a92.373 92.373 0 0 0-9.639-.51zm-20-77.679c18.11 0 28.338 5.824 29.564 8.278-1.203 2.447-11.428 8.286-29.563 8.286-18.136 0-28.362-5.839-29.564-8.286 1.225-2.453 11.453-8.278 29.563-8.278zm-45.151 53.678c18.11 0 28.338 5.824 29.564 8.278-1.203 2.447-11.428 8.286-29.564 8.286s-28.362-5.839-29.564-8.286c1.227-2.454 11.455-8.278 29.564-8.278zm.001 203.214c-1.947 0-3.782-.08-5.546-.203v-42.226a8 8 0 0 0-16 0v39.05c-4.874-1.788-7.627-3.851-8.093-5.025v-86.86a8.001 8.001 0 0 0-5.929-7.728l-24.886-6.668c-.126-1.463-.032-3.9.777-6.922.809-3.021 1.947-5.179 2.788-6.383l17.18 4.604a8.001 8.001 0 0 0 10.07-7.728v-49.965c8.226 3.522 18.7 5.343 29.15 5.398v30.943a8 8 0 0 0 16 0v-32.276c5.095-.904 9.908-2.258 14.126-4.064v5.312c-6.2 3.939-10.126 9.224-10.126 15.811v58.417l-9.62-2.578c-2.302-.616-8.259-1.286-13.869 5.792-2.566 3.238-4.698 7.705-6.004 12.578-3.487 13.016-.188 23.643 8.024 25.845l21.468 5.752v46.449c-5.545 1.719-12.387 2.675-19.51 2.675zm65.151 40.001c-1.947 0-3.782-.08-5.546-.203v-42.225a8 8 0 0 0-16 0v39.05c-4.874-1.788-7.626-3.85-8.093-5.024v-86.861a8.001 8.001 0 0 0-5.93-7.728l-24.885-6.668c-.126-1.463-.032-3.9.777-6.922.81-3.021 1.946-5.179 2.788-6.383l17.18 4.604a8 8 0 0 0 10.07-7.728v-49.965c8.354 3.576 19.026 5.403 29.639 5.403 1.851 0 3.703-.061 5.546-.172v40.347a8 8 0 0 0 16 0v-42.837c2.862-.756 5.584-1.667 8.092-2.741v167.65c-.944 2.378-11.23 8.403-29.638 8.403z" fill="#000000" data-original="#000000" class=""></path></g></svg>