<svg xmlns="http://www.w3.org/2000/svg" version="1.1" xmlns:xlink="http://www.w3.org/1999/xlink" xmlns:svgjs="http://svgjs.com/svgjs" width="512" height="512" x="0" y="0" viewBox="0 0 64 64" style="enable-background:new 0 0 512 512" xml:space="preserve" class=""><g><path d="m24.33 2.26-22 20A1 1 0 0 0 3 24h3v13l-3.66 3.25a1 1 0 0 0-.18 1.29 1 1 0 0 0 1.25.37L12 38.09l8 3.56v10.7l-8 3.56-8.59-3.82a1 1 0 0 0-1.25.37 1 1 0 0 0 .18 1.29l9 8A1 1 0 0 0 12 62a1 1 0 0 0 .42-.09l13-6A1 1 0 0 0 26 55v-3h19.28l.77 2.32a1 1 0 0 0 .71.65l8 2a1 1 0 0 0 1-.26l6-6a1 1 0 0 0 .14-1.24 1 1 0 0 0-1.18-.41L55 51l-4-1.69v-4.64L55 43l5.64 2a1 1 0 0 0 1.18-.41 1 1 0 0 0-.14-1.24l-6-6a1 1 0 0 0-1-.26l-8 2a1 1 0 0 0-.71.65L45.28 42H44V24h3a1 1 0 0 0 .67-1.74l-22-20a1 1 0 0 0-1.34 0ZM46 44a1 1 0 0 0 1-.68l.82-2.48 6.92-1.73 2.51 2.51-1.92-.62a1 1 0 0 0-.72 0l-5 2.09A1 1 0 0 0 49 44v6a1 1 0 0 0 .61.92l5 2.09a1 1 0 0 0 .72 0l1.87-.66-2.51 2.51-6.92-1.73-.77-2.45a1 1 0 0 0-1-.68H25a1 1 0 0 0-1 1v3.36l-11.82 5.46-3.71-3.29 3.12 1.38a1 1 0 0 0 .82 0l9-4A1 1 0 0 0 22 53V41a1 1 0 0 0-.59-.91l-9-4a1 1 0 0 0-.82 0l-3.12 1.38 3.71-3.29L24 39.64V43a1 1 0 0 0 1 1Zm-3-22a1 1 0 0 0-1 1v19h-9v-2h-2v2h-5v-3a1 1 0 0 0-.58-.91l-6.42-3V26h12v12h2V25a1 1 0 0 0-1-1H18a1 1 0 0 0-1 1v9.21l-4.58-2.12a1 1 0 0 0-1.08.16L8 35.22V23a1 1 0 0 0-1-1H5.59L25 4.35 44.41 22Z" fill="#000000" data-original="#000000" class=""></path><path d="M11.63 53.93a1 1 0 0 0 .74 0l6-2.4a1 1 0 0 0 .63-.93v-7.2a1 1 0 0 0-.63-.93l-6-2.4a1 1 0 0 0-.74 0l-6 2.4a1 1 0 0 0-.63.93v7.2a1 1 0 0 0 .63.93ZM7 44.08l5-2 5 2v5.84l-5 2-5-2Z" fill="#000000" data-original="#000000" class=""></path><path d="M15 47.09a3 3 0 1 0-3 3 3 3 0 0 0 3-3Zm-4 0a1 1 0 1 1 1 1 1 1 0 0 1-1-1ZM44 13a1 1 0 0 0 2 0c0-2.17 1.37-4 3-4a1 1 0 0 0 0-2c-1.63 0-3-1.83-3-4a1 1 0 0 0-2 0c0 2.17-1.37 4-3 4a1 1 0 0 0 0 2c1.63 0 3 1.83 3 4Zm1-6.4A5.57 5.57 0 0 0 46.24 8 5.57 5.57 0 0 0 45 9.4 5.57 5.57 0 0 0 43.76 8 5.57 5.57 0 0 0 45 6.6ZM18 21c-1.63 0-3-1.83-3-4a1 1 0 0 0-2 0c0 2.17-1.37 4-3 4a1 1 0 0 0 0 2c1.63 0 3 1.83 3 4a1 1 0 0 0 2 0c0-2.17 1.37-4 3-4a1 1 0 0 0 0-2Zm-4 2.4a5.57 5.57 0 0 0-1.24-1.4A5.57 5.57 0 0 0 14 20.6a5.57 5.57 0 0 0 1.24 1.4A5.57 5.57 0 0 0 14 23.4Z" fill="#000000" data-original="#000000" class=""></path></g></svg>