<svg xmlns="http://www.w3.org/2000/svg" version="1.1" xmlns:xlink="http://www.w3.org/1999/xlink" xmlns:svgjs="http://svgjs.com/svgjs" width="512" height="512" x="0" y="0" viewBox="0 0 512 512" style="enable-background:new 0 0 512 512" xml:space="preserve" class=""><g><path d="M23.031 419.078v-44.901c0-1.022.622-1.942 1.572-2.321l22.065-8.826a250 250 0 0 1 185.695 0L256 372.484v46.594M469.543 283.352l-23.763.29a249.999 249.999 0 0 0-171.56 71.063L256 372.484" style="stroke-width:15;stroke-linecap:round;stroke-linejoin:round;stroke-miterlimit:10;" fill="none" stroke="#000000" stroke-width="15" stroke-linecap="round" stroke-linejoin="round" stroke-miterlimit="10" data-original="#000000" class=""></path><path d="m32.65 311.987 23.598-2.814a250.002 250.002 0 0 1 179.368 48.061L256 372.484M488.969 419.078v-44.901a2.498 2.498 0 0 0-1.572-2.321l-22.065-8.826a250 250 0 0 0-185.695 0L256 372.484M141.022 419.078H15a7.5 7.5 0 0 0-7.5 7.5v16.062a7.5 7.5 0 0 0 7.5 7.5h219.397c3.177 0 5.885 2.1 6.929 5.101 2.111 6.072 7.883 10.43 14.674 10.43h0c6.791 0 12.563-4.358 14.674-10.43 1.043-3.001 3.751-5.101 6.929-5.101H497a7.5 7.5 0 0 0 7.5-7.5v-16.062a7.5 7.5 0 0 0-7.5-7.5H176.022M325.1 161.811c0-36.301-29.123-67.793-67.095-68.861-38.677-1.088-71.033 30.018-71.033 68.861a69.167 69.167 0 0 0 24.991 53.293 16.638 16.638 0 0 1 4.268 5.364l9.277 18.553a16.667 16.667 0 0 0 14.907 9.213h31.17a16.667 16.667 0 0 0 14.907-9.213l9.277-18.553a16.649 16.649 0 0 1 4.268-5.364c18.392-15.254 25.063-36.206 25.063-53.293zM240.469 279.297v15.531c0 8.578 6.954 15.531 15.531 15.531h0c8.578 0 15.531-6.954 15.531-15.531v-15.531M274.563 279.297h-37.125c-6.904 0-12.5-5.596-12.5-12.5v-18.562h62.125v18.562c0 6.903-5.597 12.5-12.5 12.5zM209.406 248.234h93.188M256 248.234v-46.593" style="stroke-width:15;stroke-linecap:round;stroke-linejoin:round;stroke-miterlimit:10;" fill="none" stroke="#000000" stroke-width="15" stroke-linecap="round" stroke-linejoin="round" stroke-miterlimit="10" data-original="#000000" class=""></path><path d="M240.469 186.109 256 201.641l15.531-15.532M256 61.859V46.328M222.063 64.258l-7.765-13.451M289.937 64.258l7.765-13.451M147.281 140.642v-32.72c0-8.284-6.716-15-15-15H22.5c-8.284 0-15 6.716-15 15V211.27c0 8.284 6.716 15 15 15h62.656l31.062 21.964V226.27h16.062c8.284 0 15-6.716 15-15v-35.628M440.003 226.27h-13.159l-31.062 21.964V226.27H379.72c-8.284 0-15-6.716-15-15V107.922c0-8.284 6.716-15 15-15H489.5c8.284 0 15 6.716 15 15V211.27c0 8.284-6.716 15-15 15h-14.497" style="stroke-width:15;stroke-linecap:round;stroke-linejoin:round;stroke-miterlimit:10;" fill="none" stroke="#000000" stroke-width="15" stroke-linecap="round" stroke-linejoin="round" stroke-miterlimit="10" data-original="#000000" class=""></path><path d="m71.899 151.265-10.982-10.982a7.5 7.5 0 0 0-10.607 0l-11.358 11.358a7.5 7.5 0 0 0 0 10.607l27.643 27.643a7.5 7.5 0 0 0 10.607 0l38.626-38.626a7.5 7.5 0 0 0 0-10.607L104.47 129.3a7.5 7.5 0 0 0-10.607 0l-21.964 21.965zM467.744 170.766l-11.17-11.17 11.17-11.17a7.5 7.5 0 0 0 0-10.607l-11.358-11.358a7.5 7.5 0 0 0-10.607 0l-11.17 11.17-11.17-11.17a7.5 7.5 0 0 0-10.607 0l-11.358 11.358a7.5 7.5 0 0 0 0 10.607l11.17 11.17-11.17 11.17a7.5 7.5 0 0 0 0 10.607l11.358 11.358a7.5 7.5 0 0 0 10.607 0l11.17-11.17 11.17 11.17a7.5 7.5 0 0 0 10.607 0l11.358-11.358a7.5 7.5 0 0 0 0-10.607zM210.449 388.016c-23.062-7.916-47.001-11.876-70.933-11.876-23.939 0-47.87 3.958-70.934 11.876M301.551 388.016c23.062-7.916 47.001-11.876 70.933-11.876 23.939 0 47.87 3.958 70.934 11.876" style="stroke-width:15;stroke-linecap:round;stroke-linejoin:round;stroke-miterlimit:10;" fill="none" stroke="#000000" stroke-width="15" stroke-linecap="round" stroke-linejoin="round" stroke-miterlimit="10" data-original="#000000" class=""></path></g></svg>