<svg xmlns="http://www.w3.org/2000/svg" version="1.1" xmlns:xlink="http://www.w3.org/1999/xlink" xmlns:svgjs="http://svgjs.com/svgjs" width="512" height="512" x="0" y="0" viewBox="0 0 60 60" style="enable-background:new 0 0 512 512" xml:space="preserve" class=""><g><path d="M57 51h-4.812a5.986 5.986 0 0 0-10.376 0h-6.624a6.031 6.031 0 0 0-2.832-2.517L38.333 44H49a5.006 5.006 0 0 0 5-5V5a5.006 5.006 0 0 0-5-5H11a5.006 5.006 0 0 0-5 5v34a5.006 5.006 0 0 0 5 5h10.667l5.977 4.483A6.031 6.031 0 0 0 24.812 51h-6.624a5.986 5.986 0 0 0-10.376 0H3a3 3 0 0 0-3 3 2.92 2.92 0 0 0 .873 2.107A2.937 2.937 0 0 0 3 57h4.812a5.986 5.986 0 0 0 10.376 0h6.624a5.986 5.986 0 0 0 10.376 0h6.624a5.986 5.986 0 0 0 10.376 0H57a3 3 0 0 0 3-3 3.015 3.015 0 0 0-3-3ZM3 55a.977.977 0 0 1-.713-.307A.959.959 0 0 1 2 54a1 1 0 0 1 1-1h4.09a5.6 5.6 0 0 0 0 2Zm10 3a4 4 0 1 1 4-4 4 4 0 0 1-4 4Zm5.91-3a5.6 5.6 0 0 0 0-2h5.18a5.6 5.6 0 0 0 0 2ZM22 42H11a3 3 0 0 1-3-3V5a3 3 0 0 1 3-3h38a3 3 0 0 1 3 3v34a3 3 0 0 1-3 3H38a1 1 0 0 0-.6.2L30 47.75l-7.4-5.55a1 1 0 0 0-.6-.2Zm8 16a4 4 0 1 1 4-4 4 4 0 0 1-4 4Zm5.91-3a5.6 5.6 0 0 0 0-2h5.18a5.6 5.6 0 0 0 0 2ZM47 58a4 4 0 1 1 4-4 4 4 0 0 1-4 4Zm10-3h-4.09a5.6 5.6 0 0 0 0-2H57a.977.977 0 0 1 .713.307A.959.959 0 0 1 58 54a1 1 0 0 1-1 1Z" fill="#000000" data-original="#000000" class=""></path><path d="M24 17a1 1 0 0 0 .707-1.707L20.414 11l4.293-4.293a1 1 0 1 0-1.414-1.414l-5 5a1 1 0 0 0 0 1.414l5 5A1 1 0 0 0 24 17ZM35.293 16.707a1 1 0 0 0 1.414 0l5-5a1 1 0 0 0 0-1.414l-5-5a1 1 0 0 0-1.414 1.414L39.586 11l-4.293 4.293a1 1 0 0 0 0 1.414ZM27.684 17.948a1 1 0 0 0 1.264-.632l4-12a1 1 0 1 0-1.9-.632l-4 12a1 1 0 0 0 .636 1.264ZM13 20h-1a1 1 0 0 0 0 2h1a1 1 0 0 0 0-2ZM13 24h-1a1 1 0 0 0 0 2h1a1 1 0 0 0 0-2ZM46 26h2a1 1 0 0 0 0-2h-2a1 1 0 0 0 0 2ZM13 28h-1a1 1 0 0 0 0 2h1a1 1 0 0 0 0-2ZM13 32h-1a1 1 0 0 0 0 2h1a1 1 0 0 0 0-2ZM13 36h-1a1 1 0 0 0 0 2h1a1 1 0 0 0 0-2ZM17 20a1 1 0 0 0-1 1v16a1 1 0 0 0 2 0V21a1 1 0 0 0-1-1ZM32 21a1 1 0 0 0-1-1H21a1 1 0 0 0 0 2h10a1 1 0 0 0 1-1ZM22 25a1 1 0 0 0 1 1h10a1 1 0 0 0 0-2H23a1 1 0 0 0-1 1ZM37 24a1 1 0 0 0 0 2h5a1 1 0 0 0 0-2ZM40 29a1 1 0 0 0-1-1H24a1 1 0 0 0 0 2h15a1 1 0 0 0 1-1ZM32 33a1 1 0 0 0-1-1H21a1 1 0 0 0 0 2h10a1 1 0 0 0 1-1ZM34 37a1 1 0 0 0-1-1H23a1 1 0 0 0 0 2h10a1 1 0 0 0 1-1ZM42 36h-5a1 1 0 0 0 0 2h5a1 1 0 0 0 0-2Z" fill="#000000" data-original="#000000" class=""></path></g></svg>