<?xml version="1.0" encoding="utf-8"?>
<!-- Generator: Adobe Illustrator 27.3.1, SVG Export Plug-In . SVG Version: 6.00 Build 0)  -->
<svg version="1.1" id="Layer_1" xmlns="http://www.w3.org/2000/svg" xmlns:xlink="http://www.w3.org/1999/xlink" x="0px" y="0px"
	 viewBox="0 0 1309 337" style="enable-background:new 0 0 1309 337;" xml:space="preserve">
<style type="text/css">
	.st0{fill-rule:evenodd;clip-rule:evenodd;fill:#F39120;}
	.st1{fill-rule:evenodd;clip-rule:evenodd;fill:#009400;}
	.st2{fill:#F39120;}
	.st3{fill-rule:evenodd;clip-rule:evenodd;fill:#536878;}
	.st4{fill:none;}
	.st5{fill:#009400;}
</style>
<path class="st0" d="M58.2,138.7C111,150.3,151,182.1,171.7,226c7.7,16.2,12.9,32.5,15,52.5c1.5-3.6,1.7-9.7,2.5-13.9
	c2.5-13.1,7.1-26.4,12.5-38c7.2-15.4,17.7-29.7,27.1-39.9c16.1-17.5,37.1-31.5,60.4-40.5c9.4-3.6,23.9-6.6,26-7.5
	c-0.7-0.6-3.9-17.5-5.9-23.3c-17.7-52.5-66.2-88.6-122.3-88.9c-36-0.2-68,15-87,33.1c-2.8,2.6-4.9,4.2-7.6,7.2
	c-2.5,2.8-4.6,5.2-7.1,8.2C72.1,90.7,60.2,117,58.2,138.7z"/>
<path class="st1" d="M315.2,138.7c-2.1,0.8-16.6,3.8-26,7.5c-23.2,9-44.3,23-60.4,40.5c-9.4,10.2-19.9,24.5-27.1,39.9
	c-5.5,11.7-10,24.9-12.5,38c-0.8,4.2-1,10.4-2.5,13.9c-2.1-20-7.3-36.3-15-52.5c-20.7-44-60.7-75.7-113.6-87.3
	c-10.3-1.7-19-2.7-29.8-2.7c-0.9,21.9,5.9,48.1,13.8,65.2c9.6,20.6,19.3,33.4,32.4,47c59.2,61.8,162.2,63.1,224.4,0.5
	c11.5-11.6,24.3-27.9,32.5-46.8c7.8-17.9,15.3-43.2,14-65.9C333.8,136.1,326.1,137.5,315.2,138.7z"/>
<polygon class="st1" points="389,211.9 1267.2,212 1267.2,201.1 389.2,201.1 "/>
<path class="st0" d="M1184.5,74.4h20.3L1225,132l22.2-57.6h20.1l-44.6,109.3h-19.8l11.6-29L1184.5,74.4z M1109.8,114.2
	c0,7.2,2.4,13.2,7.3,18.1c4.8,4.8,10.8,7.3,17.8,7.3c6.4,0,12.1-2.5,17.1-7.3c4.9-4.9,7.4-10.6,7.4-17.1c0-7.1-2.4-13-7.3-18.1
	c-4.9-5-10.6-7.5-17.3-7.5c-6.9,0-12.8,2.4-17.7,7.1C1112.3,101.5,1109.8,107.3,1109.8,114.2z M1161.2,74.4h17.2v68.9
	c0,14.3-3.8,25.5-11.5,33.7c-7.6,8.2-18.1,12.2-31.4,12.2c-10,0-18.3-2.3-25-7c-6.7-4.6-11.7-11.6-14.8-20.8h18.6
	c2,3.7,4.9,6.6,8.6,8.7c3.7,2.1,7.8,3.1,12.3,3.1c7.7,0,13.9-2.5,18.7-7.5c4.8-5,7.2-11.6,7.2-19.7v-0.8c-3.7,3.9-7.9,6.8-12.7,8.8
	c-4.7,1.9-10,3-15.6,3c-5.5,0-10.7-1-15.6-2.8c-5-1.9-9.3-4.6-13.1-8.2c-4.1-3.9-7.3-8.6-9.7-14c-2.4-5.4-3.5-10.9-3.5-16.5
	c0-12.5,3.9-22.8,11.8-31c7.9-8.1,18-12.2,30.1-12.2c5.5,0,10.7,1,15.3,2.9c4.7,1.9,9,5,13.1,9V74.4z M1088,91.2
	c-7.4,0.6-12.6,2.5-15.6,5.8c-2.9,3.3-4.4,9.3-4.4,17.9v42.1h-19.2V74.4h18v9.5c2.9-3.7,6.1-6.4,9.5-8.2c3.4-1.7,7.3-2.6,11.7-2.6
	V91.2z M971.4,121.7c0.6,5.9,3,10.6,7.1,14.1c4,3.4,9.3,5.2,15.7,5.2c4.3,0,8.2-0.9,11.6-2.7c3.4-1.8,6.1-4.3,8.1-7.6h20.7
	c-3.5,9-8.7,16-15.7,21c-7,5-15.1,7.5-24.2,7.5c-6.1,0-11.8-1.1-17-3.3c-5.2-2.2-9.8-5.4-13.9-9.7c-3.9-4.1-6.9-8.7-9.1-14.1
	c-2.1-5.3-3.2-10.8-3.2-16.4c0-5.8,1-11.2,3-16.2c2-5.1,4.9-9.6,8.7-13.7c4.2-4.5,9-7.9,14.3-10.3c5.3-2.4,10.8-3.6,16.4-3.6
	c7.1,0,13.8,1.6,20,4.9c6.2,3.2,11.5,7.8,15.8,13.7c2.7,3.6,4.6,7.5,5.9,11.9c1.3,4.4,1.9,9.4,1.9,15.1c0,0.5,0,1.1-0.1,2
	c-0.1,1-0.1,1.6-0.1,2.1H971.4z M1016.9,106.5c-1.7-5.5-4.4-9.7-8.3-12.6c-3.9-2.9-8.8-4.3-14.7-4.3c-5.1,0-9.7,1.6-13.7,4.7
	c-4.1,3.1-6.8,7.2-8.2,12.2H1016.9z M885.7,74.4v9.3c2.8-3.7,6-6.5,9.6-8.3c3.6-1.8,7.8-2.7,12.4-2.7c6,0,11.2,1.1,15.6,3.4
	c4.4,2.2,8.1,5.6,11.1,10.1c1.9,3,3.3,6.4,4.1,10.2c0.8,3.8,1.2,9.4,1.2,16.8v43.7h-19.2v-36.6c0-11.1-1.3-18.6-3.8-22.7
	c-2.6-4.1-7-6.1-13.2-6.1c-6.4,0-11,2.2-13.8,6.8c-2.8,4.5-4.2,12.3-4.2,23.3v35.4h-18.6V74.4H885.7z M788.6,121.7
	c0.6,5.9,3,10.6,7.1,14.1c4,3.4,9.3,5.2,15.7,5.2c4.3,0,8.2-0.9,11.6-2.7c3.4-1.8,6.1-4.3,8.1-7.6h20.7c-3.5,9-8.7,16-15.7,21
	c-7,5-15.1,7.5-24.2,7.5c-6.1,0-11.8-1.1-17-3.3c-5.2-2.2-9.8-5.4-13.9-9.7c-3.9-4.1-6.9-8.7-9.1-14.1c-2.1-5.3-3.2-10.8-3.2-16.4
	c0-5.8,1-11.2,3-16.2c2-5.1,4.9-9.6,8.7-13.7c4.2-4.5,9-7.9,14.3-10.3c5.3-2.4,10.8-3.6,16.4-3.6c7.1,0,13.8,1.6,20,4.9
	c6.2,3.2,11.5,7.8,15.8,13.7c2.7,3.6,4.6,7.5,5.9,11.9c1.3,4.4,1.9,9.4,1.9,15.1c0,0.5,0,1.1-0.1,2c-0.1,1-0.1,1.6-0.1,2.1H788.6z
	 M834.1,106.5c-1.6-5.5-4.4-9.7-8.3-12.6c-3.9-2.9-8.8-4.3-14.7-4.3c-5.1,0-9.7,1.6-13.7,4.7c-4,3.1-6.8,7.2-8.2,12.2H834.1z
	 M650.7,121.7c0.7,5.9,3,10.6,7.1,14.1c4,3.4,9.3,5.2,15.8,5.2c4.3,0,8.2-0.9,11.6-2.7c3.4-1.8,6.1-4.3,8.1-7.6h20.8
	c-3.5,9-8.8,16-15.7,21c-7,5-15.1,7.5-24.2,7.5c-6.1,0-11.8-1.1-17-3.3c-5.2-2.2-9.8-5.4-13.9-9.7c-3.9-4.1-6.9-8.7-9-14.1
	c-2.2-5.3-3.2-10.8-3.2-16.4c0-5.8,1-11.2,3-16.2c2-5.1,4.9-9.6,8.7-13.7c4.2-4.5,9-7.9,14.3-10.3c5.3-2.4,10.8-3.6,16.4-3.6
	c7.2,0,13.8,1.6,20,4.9c6.2,3.2,11.5,7.8,15.8,13.7c2.7,3.6,4.6,7.5,5.9,11.9c1.3,4.4,1.9,9.4,1.9,15.1c0,0.5,0,1.1-0.1,2
	c0,1-0.1,1.6-0.1,2.1H650.7z M696.2,106.5c-1.7-5.5-4.4-9.7-8.3-12.6c-3.9-2.9-8.7-4.3-14.7-4.3c-5.1,0-9.7,1.6-13.7,4.7
	c-4,3.1-6.7,7.2-8.2,12.2H696.2z M550.8,114.2c0,7.2,2.4,13.2,7.3,18.1c4.8,4.8,10.7,7.3,17.8,7.3c6.5,0,12.1-2.5,17.1-7.3
	c4.9-4.9,7.4-10.6,7.4-17.1c0-7.1-2.4-13-7.3-18.1c-4.9-5-10.6-7.5-17.3-7.5c-6.9,0-12.8,2.4-17.6,7.1
	C553.3,101.5,550.8,107.3,550.8,114.2z M602.2,74.4h17.2v68.9c0,14.3-3.8,25.5-11.5,33.7c-7.6,8.2-18.1,12.2-31.4,12.2
	c-10,0-18.3-2.3-25-7c-6.7-4.6-11.7-11.6-14.8-20.8h18.6c2,3.7,4.8,6.6,8.5,8.7c3.7,2.1,7.8,3.1,12.4,3.1c7.6,0,13.9-2.5,18.7-7.5
	c4.8-5,7.1-11.6,7.1-19.7v-0.8c-3.7,3.9-7.9,6.8-12.7,8.8c-4.7,1.9-10,3-15.6,3c-5.5,0-10.7-1-15.6-2.8c-5-1.9-9.3-4.6-13.1-8.2
	c-4.1-3.9-7.3-8.6-9.7-14c-2.4-5.4-3.5-10.9-3.5-16.5c0-12.5,4-22.8,11.9-31c7.9-8.1,17.9-12.2,30.1-12.2c5.5,0,10.6,1,15.3,2.9
	c4.6,1.9,9,5,13.1,9V74.4z M413,74.4v9.3c2.8-3.7,6-6.5,9.6-8.3c3.6-1.8,7.8-2.7,12.4-2.7c6.7,0,12.4,1.2,17.1,3.5
	c4.7,2.4,8.8,6,12.2,11c3.3-4.9,6.9-8.6,11-10.9c4-2.4,8.5-3.6,13.4-3.6c10.1,0,17.8,3.2,23.3,9.5c5.4,6.4,8.1,15.5,8.1,27.3v47.4
	h-18.9v-36.6c0-11.2-1.2-18.8-3.7-22.9c-2.5-4-6.8-6-12.9-6c-6.4,0-10.9,2.2-13.6,6.8c-2.7,4.5-4.1,12.3-4.1,23.3v35.4h-19.1v-36.6
	c0-11.2-1.3-18.8-3.8-22.8c-2.5-4-6.9-6.1-13.2-6.1c-6.4,0-11,2.2-13.8,6.8c-2.8,4.5-4.2,12.3-4.2,23.3v35.4h-18.6V74.4H413z"/>
<g>
	<path class="st2" d="M752.8,157.6h-20.9V80V63.3V26.5h20.9v36.8V80V157.6z"/>
</g>
<path class="st3" d="M742,54.6l-16,4.3c1.1,1.8,4.6,3.4,6.6,5c2.4,1.9,5.1,3.2,6.6,5.1l-13.6,6.1l-17.7,8.2l17.7-3.3l16.5-3.4V54.6z
	 M762.5,49.1l-20.2,5.5l-0.2,0.1v22l0.2-0.1l19.6-4l-16.6-10c1.5-1.3,15.3-7.4,17-8.1c1.5-1.3,5.1-3.3,7-4.4c2.5-1.5,5-2.8,7-4.5
	L762.5,49.1z"/>
<rect x="-8" class="st4" width="1317" height="327"/>
<g>
	<path class="st5" d="M397.6,256.7v27.2h20.6v-7.3h8v7.3c0,1.1-0.2,2.1-0.6,3.1c-0.4,1-1,1.8-1.7,2.5c-0.7,0.7-1.6,1.3-2.5,1.7
		c-1,0.4-2,0.6-3.1,0.6h-20.6c-1.1,0-2.1-0.2-3.1-0.6c-1-0.4-1.8-1-2.5-1.7c-0.7-0.7-1.3-1.6-1.7-2.5c-0.4-1-0.6-2-0.6-3.1v-27.2
		c0-1.1,0.2-2.2,0.6-3.1c0.4-1,1-1.8,1.7-2.5c0.7-0.7,1.6-1.3,2.5-1.7c1-0.4,2-0.6,3.1-0.6h20.6c1.1,0,2.2,0.2,3.1,0.6
		c1,0.4,1.8,1,2.5,1.7c0.7,0.7,1.3,1.6,1.7,2.5c0.4,1,0.6,2,0.6,3.1v7.3h-8v-7.3H397.6z"/>
	<path class="st5" d="M447.5,232v59.8h-8V232H447.5z"/>
	<path class="st5" d="M497.3,274.4h-28.6v9.5h28.6v8h-28.6c-1.1,0-2.1-0.2-3.1-0.6c-1-0.4-1.8-1-2.5-1.7c-0.7-0.7-1.3-1.6-1.7-2.5
		c-0.4-1-0.6-2-0.6-3.1v-27.2c0-1.1,0.2-2.2,0.6-3.1c0.4-1,1-1.8,1.7-2.5c0.7-0.7,1.6-1.3,2.5-1.7c1-0.4,2-0.6,3.1-0.6h20.6
		c1.1,0,2.2,0.2,3.1,0.6c1,0.4,1.8,1,2.5,1.7c0.7,0.7,1.3,1.6,1.7,2.5c0.4,1,0.6,2,0.6,3.1V274.4z M468.7,256.7v9.7h20.6v-9.7H468.7
		z"/>
	<path class="st5" d="M510.6,273c0-1.1,0.2-2.1,0.6-3.1c0.4-1,1-1.8,1.7-2.5c0.7-0.7,1.6-1.3,2.5-1.7c1-0.4,2-0.6,3.1-0.6h20.6v-8.4
		h-26.1v-8h26.1c1.1,0,2.2,0.2,3.1,0.6c1,0.4,1.8,1,2.5,1.7c0.7,0.7,1.3,1.6,1.7,2.5c0.4,1,0.6,2,0.6,3.1v35.2h-8v-7.3
		c-0.1,1-0.4,1.9-0.8,2.8c-0.5,0.9-1,1.7-1.8,2.3c-0.7,0.7-1.5,1.2-2.5,1.6c-0.9,0.4-1.9,0.6-2.9,0.6h-12.7c-1.1,0-2.1-0.2-3.1-0.6
		c-1-0.4-1.8-1-2.5-1.7c-0.7-0.7-1.3-1.6-1.7-2.5c-0.4-1-0.6-2-0.6-3.1V273z M518.6,283.9h20.6V273h-20.6V283.9z"/>
	<path class="st5" d="M598.7,291.9h-8v-35.2h-22.3v35.2h-8v-43.2h8v7.6c0.1-1.1,0.3-2,0.7-3c0.4-0.9,1-1.7,1.7-2.4
		c0.7-0.7,1.5-1.2,2.5-1.6c0.9-0.4,2-0.6,3-0.6h14.3c1.1,0,2.2,0.2,3.1,0.6c1,0.4,1.8,1,2.5,1.7c0.7,0.7,1.3,1.6,1.7,2.5
		s0.6,2,0.6,3.1V291.9z"/>
	<path class="st5" d="M673.5,274.4h-28.6v9.5h28.6v8h-28.6c-1.1,0-2.1-0.2-3.1-0.6c-1-0.4-1.8-1-2.5-1.7c-0.7-0.7-1.3-1.6-1.7-2.5
		c-0.4-1-0.6-2-0.6-3.1v-27.2c0-1.1,0.2-2.2,0.6-3.1c0.4-1,1-1.8,1.7-2.5c0.7-0.7,1.6-1.3,2.5-1.7c1-0.4,2-0.6,3.1-0.6h20.6
		c1.1,0,2.2,0.2,3.1,0.6c1,0.4,1.8,1,2.5,1.7c0.7,0.7,1.3,1.6,1.7,2.5c0.4,1,0.6,2,0.6,3.1V274.4z M644.9,256.7v9.7h20.6v-9.7H644.9
		z"/>
	<path class="st5" d="M725,291.9h-8v-35.2h-22.3v35.2h-8v-43.2h8v7.6c0.1-1.1,0.3-2,0.7-3c0.4-0.9,1-1.7,1.7-2.4
		c0.7-0.7,1.5-1.2,2.5-1.6c0.9-0.4,2-0.6,3-0.6H717c1.1,0,2.2,0.2,3.1,0.6c1,0.4,1.8,1,2.5,1.7c0.7,0.7,1.3,1.6,1.7,2.5
		c0.4,1,0.6,2,0.6,3.1V291.9z"/>
	<path class="st5" d="M774.9,274.4h-28.6v9.5h28.6v8h-28.6c-1.1,0-2.1-0.2-3.1-0.6c-1-0.4-1.8-1-2.5-1.7c-0.7-0.7-1.3-1.6-1.7-2.5
		c-0.4-1-0.6-2-0.6-3.1v-27.2c0-1.1,0.2-2.2,0.6-3.1s1-1.8,1.7-2.5c0.7-0.7,1.6-1.3,2.5-1.7c1-0.4,2-0.6,3.1-0.6h20.6
		c1.1,0,2.2,0.2,3.1,0.6c1,0.4,1.8,1,2.5,1.7c0.7,0.7,1.3,1.6,1.7,2.5c0.4,1,0.6,2,0.6,3.1V274.4z M746.3,256.7v9.7h20.6v-9.7H746.3
		z"/>
	<path class="st5" d="M796.2,256.7v35.2h-8v-43.2h8v7.6c0.1-1.1,0.3-2,0.7-3c0.4-0.9,1-1.7,1.7-2.4c0.7-0.7,1.5-1.2,2.5-1.6
		c0.9-0.4,2-0.6,3-0.6h8.5c1.1,0,2.1,0.2,3.1,0.6c1,0.4,1.8,1,2.5,1.7c0.7,0.7,1.3,1.6,1.7,2.5c0.4,1,0.6,2,0.6,3.1v7.3h-8v-7.3
		H796.2z"/>
	<path class="st5" d="M830.6,256.7c0-1.1,0.2-2.2,0.6-3.1s1-1.8,1.7-2.5c0.7-0.7,1.6-1.3,2.5-1.7c1-0.4,2-0.6,3.1-0.6h14.3
		c1.1,0,2.1,0.2,3,0.6c0.9,0.4,1.8,0.9,2.5,1.6c0.7,0.7,1.3,1.5,1.7,2.4c0.4,0.9,0.7,1.9,0.7,3v-7.6h8v52.7c0,1.1-0.2,2.2-0.6,3.1
		c-0.4,1-1,1.8-1.7,2.5c-0.7,0.7-1.6,1.3-2.5,1.7c-1,0.4-2,0.6-3.1,0.6h-25.2v-8h25.2v-11.1h-22.3c-1.1,0-2.1-0.2-3.1-0.6
		s-1.8-1-2.5-1.7s-1.3-1.6-1.7-2.5s-0.6-2-0.6-3.1V256.7z M860.8,282.2v-25.6h-22.3v25.6H860.8z"/>
	<path class="st5" d="M885,309.3l9-21.3l-17-39.3h8.4l12.6,29.7l12.6-29.7h8.4L893,309.3H885z"/>
	<path class="st5" d="M968.4,240v8.6h14.2v8h-14.2v35.2h-8v-35.2h-10.5v-8h10.5V240c0-1.1,0.2-2.1,0.6-3.1s1-1.8,1.7-2.5
		s1.6-1.3,2.6-1.7c1-0.4,2-0.6,3.1-0.6h14.2v8H968.4z"/>
	<path class="st5" d="M1030.8,283.9c0,1.1-0.2,2.1-0.6,3.1c-0.4,1-1,1.8-1.7,2.5c-0.7,0.7-1.6,1.3-2.5,1.7c-1,0.4-2,0.6-3.1,0.6
		h-21.5c-1.1,0-2.1-0.2-3.1-0.6c-1-0.4-1.8-1-2.5-1.7c-0.7-0.7-1.3-1.6-1.7-2.5c-0.4-1-0.6-2-0.6-3.1v-27.2c0-1.1,0.2-2.2,0.6-3.1
		s1-1.8,1.7-2.5c0.7-0.7,1.6-1.3,2.5-1.7c1-0.4,2-0.6,3.1-0.6h21.5c1.1,0,2.1,0.2,3.1,0.6c1,0.4,1.8,1,2.5,1.7
		c0.7,0.7,1.3,1.6,1.7,2.5c0.4,1,0.6,2,0.6,3.1V283.9z M1001.4,256.7v27.2h21.5v-27.2H1001.4z"/>
	<path class="st5" d="M1052,256.7v35.2h-8v-43.2h8v7.6c0.1-1.1,0.3-2,0.7-3c0.4-0.9,1-1.7,1.7-2.4c0.7-0.7,1.5-1.2,2.5-1.6
		c0.9-0.4,2-0.6,3-0.6h8.5c1.1,0,2.1,0.2,3.1,0.6c1,0.4,1.8,1,2.5,1.7c0.7,0.7,1.3,1.6,1.7,2.5c0.4,1,0.6,2,0.6,3.1v7.3h-8v-7.3
		H1052z"/>
	<path class="st5" d="M1123,274.4h-28.6v9.5h28.6v8h-28.6c-1.1,0-2.1-0.2-3.1-0.6c-1-0.4-1.8-1-2.5-1.7c-0.7-0.7-1.3-1.6-1.7-2.5
		c-0.4-1-0.6-2-0.6-3.1v-27.2c0-1.1,0.2-2.2,0.6-3.1s1-1.8,1.7-2.5c0.7-0.7,1.6-1.3,2.5-1.7c1-0.4,2-0.6,3.1-0.6h20.6
		c1.1,0,2.2,0.2,3.1,0.6c1,0.4,1.8,1,2.5,1.7c0.7,0.7,1.3,1.6,1.7,2.5c0.4,1,0.6,2,0.6,3.1V274.4z M1094.4,256.7v9.7h20.6v-9.7
		H1094.4z"/>
	<path class="st5" d="M1148.6,291.9l-17.3-43.2h8.3l13.1,33.6l13.1-33.6h8.3l-17.3,43.2H1148.6z"/>
	<path class="st5" d="M1219.1,274.4h-28.6v9.5h28.6v8h-28.6c-1.1,0-2.1-0.2-3.1-0.6c-1-0.4-1.8-1-2.5-1.7c-0.7-0.7-1.3-1.6-1.7-2.5
		c-0.4-1-0.6-2-0.6-3.1v-27.2c0-1.1,0.2-2.2,0.6-3.1s1-1.8,1.7-2.5c0.7-0.7,1.6-1.3,2.5-1.7c1-0.4,2-0.6,3.1-0.6h20.6
		c1.1,0,2.2,0.2,3.1,0.6c1,0.4,1.8,1,2.5,1.7c0.7,0.7,1.3,1.6,1.7,2.5c0.4,1,0.6,2,0.6,3.1V274.4z M1190.5,256.7v9.7h20.6v-9.7
		H1190.5z"/>
	<path class="st5" d="M1240.3,256.7v35.2h-8v-43.2h8v7.6c0.1-1.1,0.3-2,0.7-3c0.4-0.9,1-1.7,1.7-2.4c0.7-0.7,1.5-1.2,2.5-1.6
		c0.9-0.4,2-0.6,3-0.6h8.5c1.1,0,2.1,0.2,3.1,0.6c1,0.4,1.8,1,2.5,1.7c0.7,0.7,1.3,1.6,1.7,2.5c0.4,1,0.6,2,0.6,3.1v7.3h-8v-7.3
		H1240.3z"/>
</g>
</svg>
