<svg xmlns="http://www.w3.org/2000/svg" version="1.1" xmlns:xlink="http://www.w3.org/1999/xlink" xmlns:svgjs="http://svgjs.com/svgjs" width="512" height="512" x="0" y="0" viewBox="0 0 512 512" style="enable-background:new 0 0 512 512" xml:space="preserve" class=""><g><path d="m308.352 426.022-35.175 20.308c-4.56-4.093-10.581-6.588-17.176-6.588-14.195 0-25.743 11.548-25.743 25.743 0 14.194 11.548 25.743 25.743 25.743 14.194 0 25.743-11.548 25.743-25.743 0-1.819-.192-3.593-.553-5.306l35.161-20.3a8 8 0 0 0-8-13.857zM256 475.228c-5.373 0-9.743-4.371-9.743-9.743 0-5.373 4.371-9.743 9.743-9.743s9.743 4.371 9.743 9.743-4.37 9.743-9.743 9.743zm242.874-49.69-35.876-13.81a212.373 212.373 0 0 0-22.627-54.582l15.614-35.155a7.999 7.999 0 0 0-1.654-8.904l-10.096-10.096c.578-1.69.882-3.483.882-5.315V113.61h19.049c4.82 0 9.07-2.715 11.093-7.085 2.022-4.37 1.34-9.368-1.779-13.041l-58.074-68.399a12.196 12.196 0 0 0-9.313-4.312h-.001a12.194 12.194 0 0 0-9.313 4.311L338.7 93.485c-3.119 3.675-3.799 8.672-1.776 13.042 2.022 4.369 6.272 7.083 11.091 7.083h19.049v166.292l-2.74 1.217a212.417 212.417 0 0 0-54.565-22.623l-13.813-35.886a8.011 8.011 0 0 0-.919-1.687v-56.197h19.048c4.821 0 9.072-2.716 11.094-7.087s1.339-9.368-1.78-13.039l-58.076-68.4a12.198 12.198 0 0 0-9.315-4.31 12.193 12.193 0 0 0-9.312 4.311l-58.075 68.4c-3.12 3.673-3.802 8.671-1.78 13.041 2.022 4.371 6.273 7.086 11.093 7.086h19.049v56.199a7.985 7.985 0 0 0-.918 1.684l-13.814 35.886a212.417 212.417 0 0 0-54.565 22.623l-2.74-1.217v-64.057h19.049c4.82 0 9.071-2.716 11.093-7.087s1.339-9.368-1.78-13.039l-58.076-68.402a12.199 12.199 0 0 0-9.315-4.309 12.194 12.194 0 0 0-9.312 4.31l-58.075 68.4c-3.119 3.674-3.801 8.671-1.778 13.042s6.272 7.084 11.092 7.084h19.049v81.833c0 1.832.304 3.624.883 5.315L57.67 313.089a8 8 0 0 0-1.655 8.904l15.618 35.164a212.389 212.389 0 0 0-22.624 54.571L13.126 425.54A7.998 7.998 0 0 0 8 433.005v32.48a8 8 0 0 0 8 8h144.233a8 8 0 0 0 0-16h-9.22a104.503 104.503 0 0 1 10.074-37.56l7.976 4.605a7.998 7.998 0 0 0 10.929-2.928 8 8 0 0 0-2.928-10.928l-7.949-4.589a106.158 106.158 0 0 1 27.484-27.485l4.589 7.949a7.998 7.998 0 0 0 10.929 2.928 8 8 0 0 0 2.928-10.928l-4.605-7.976a104.483 104.483 0 0 1 37.561-10.075v9.221a8 8 0 0 0 16 0v-9.221a104.494 104.494 0 0 1 37.561 10.075l-4.605 7.976a8 8 0 0 0 13.857 8l4.589-7.949a106.154 106.154 0 0 1 27.484 27.484l-7.949 4.589a8 8 0 1 0 8.001 13.856l7.976-4.605a104.483 104.483 0 0 1 10.075 37.561h-9.22a8 8 0 0 0 0 16H496a8 8 0 0 0 8-8v-32.481a8 8 0 0 0-5.126-7.466zM375.064 97.61h-18.877l49.904-58.776 49.904 58.776h-18.877a8 8 0 0 0-8 8v182.265l-20.721-20.721a8.003 8.003 0 0 0-8.904-1.655l-16.428 7.296V105.61a8.001 8.001 0 0 0-8.001-8zm-168.967 51.117L256 89.951l49.903 58.776h-18.876a8 8 0 0 0-8 8v60.757h-46.053v-60.757a8 8 0 0 0-8-8zM74.882 199.845H56.006l49.903-58.776 49.903 58.776h-18.877a8 8 0 0 0-8 8v64.951l-16.428-7.297a7.999 7.999 0 0 0-8.904 1.655l-20.721 20.721v-80.03a8 8 0 0 0-8-8zM488 457.485H377.019c-4.134-63.164-56.829-113.29-121.02-113.29-64.19 0-116.885 50.126-121.019 113.29H24v-18.987l34.642-13.334a8.004 8.004 0 0 0 4.909-5.614 196.491 196.491 0 0 1 23.895-57.639 8.001 8.001 0 0 0 .499-7.442l-15.078-33.95 38.167-38.167 33.954 15.08a8.001 8.001 0 0 0 7.442-.5 196.514 196.514 0 0 1 57.634-23.894 8.002 8.002 0 0 0 5.614-4.909l13.337-34.645h53.974l13.335 34.645a8 8 0 0 0 5.614 4.909 196.52 196.52 0 0 1 57.633 23.894 7.998 7.998 0 0 0 7.442.5l33.954-15.08 38.167 38.166-15.075 33.941a7.998 7.998 0 0 0 .5 7.442 196.487 196.487 0 0 1 23.898 57.649 8 8 0 0 0 4.909 5.614L488 438.497z" fill="#ff4500" data-original="#000000" class=""></path></g></svg>